<svg width="152" height="95" viewBox="0 0 152 95" fill="none" xmlns="http://www.w3.org/2000/svg">
<path d="M37.9774 77.9518C36.3741 77.9518 34.7601 77.8273 33.1455 77.5746C25.0048 76.3012 17.8466 71.9338 12.9907 65.2775C8.13414 58.6209 6.16094 50.4713 7.43372 42.3305C8.70651 34.1897 13.0738 27.0316 19.7307 22.1757C33.4721 12.1502 52.8077 15.175 62.8332 28.9163L59.9251 31.0371C51.0691 18.8989 33.9908 16.2279 21.852 25.0832C15.972 29.3727 12.1147 35.6957 10.99 42.8862C9.86538 50.0772 11.6087 57.2755 15.8982 63.1556C20.1878 69.0356 26.5108 72.8929 33.7012 74.0177C40.8928 75.1415 48.0905 73.3988 53.9706 69.1092L56.0919 72.0177C50.7556 75.9111 44.4593 77.9518 37.9774 77.9518Z" fill="white"/>
<path d="M48.7305 66.2546L62.2405 66.252L55.9396 78.7359L48.7305 66.2546Z" fill="white"/>
<path d="M24.7344 30.5625H30.4588V62.0698H24.7344V30.5625Z" fill="white"/>
<path d="M34.7188 39.4373H40.1331V42.0552C40.1331 42.8982 40.0446 43.6081 40.0446 43.6081H40.1331C41.1096 41.6998 43.5942 38.9043 48.1653 38.9043C53.18 38.9043 56.0197 41.5222 56.0197 47.5135V62.0693H50.4287V48.6676C50.4287 45.9163 49.7188 44.0523 46.8342 44.0523C43.8166 44.0523 41.5975 45.9606 40.7545 48.6676C40.4439 49.5993 40.3549 50.6201 40.3549 51.6852V62.0693H34.7188V39.4373Z" fill="white"/>
<path d="M59.7475 55.3233C59.7475 55.3233 62.2327 57.8085 65.9157 57.8085C67.5134 57.8085 68.8888 57.0986 68.8888 55.7669C68.8888 52.3942 57.8835 52.8381 57.8835 45.5606C57.8835 41.3447 61.6555 38.9043 66.5369 38.9043C71.6403 38.9043 74.1255 41.478 74.1255 41.478L72.0397 45.6497C72.0397 45.6497 69.9538 43.6972 66.4926 43.6972C65.0282 43.6972 63.6081 44.3186 63.6081 45.7388C63.6081 48.9339 74.6134 48.5343 74.6134 55.8118C74.6134 59.5841 71.3297 62.6014 65.96 62.6014C60.3239 62.6014 57.1738 59.2729 57.1738 59.2729L59.7475 55.3233Z" fill="white"/>
<path d="M76.2988 30.5625H81.8898V35.5775H76.2988V30.5625ZM76.2988 39.438H81.9349V62.07H76.2988V39.438Z" fill="white"/>
<path d="M94.0039 38.9059C98.9737 38.9059 100.527 41.7905 100.527 41.7905H100.616C100.616 41.7905 100.572 41.2136 100.572 40.5036V30.5625H106.208V62.07H100.883V60.206C100.883 59.363 100.971 58.7416 100.971 58.7416H100.883C100.883 58.7416 98.9746 62.6021 93.7826 62.6021C87.6587 62.6021 83.7539 57.765 83.7539 50.7536C83.7533 43.5646 88.0132 38.9059 94.0039 38.9059ZM95.0689 57.8541C97.998 57.8541 100.749 55.7243 100.749 50.7093C100.749 47.2042 98.8852 43.7421 95.1132 43.7421C92.0065 43.7421 89.4328 46.2719 89.4328 50.7536C89.4337 55.0586 91.7413 57.8541 95.0689 57.8541Z" fill="white"/>
<path d="M119.476 38.9043C126 38.9043 129.505 43.6523 129.505 49.6436C129.505 50.3092 129.372 51.8179 129.372 51.8179H113.751C114.107 55.7675 117.168 57.8085 120.541 57.8085C124.18 57.8085 127.064 55.3233 127.064 55.3233L129.239 59.3614C129.239 59.3614 125.777 62.6008 120.141 62.6008C112.642 62.6008 107.982 57.1865 107.982 50.7523C107.983 43.7856 112.731 38.9043 119.476 38.9043ZM123.825 47.9568C123.737 44.8949 121.828 43.253 119.343 43.253C116.458 43.253 114.462 45.0277 113.93 47.9568H123.825Z" fill="white"/>
<path d="M131.324 39.4372H136.738V43.342C136.738 44.1853 136.649 44.9397 136.649 44.9397H136.738C137.758 41.7007 140.466 39.127 143.927 39.127C144.46 39.127 144.947 39.2154 144.947 39.2154V44.7622C144.947 44.7622 144.371 44.6737 143.616 44.6737C141.22 44.6737 138.513 46.049 137.448 49.4217C137.093 50.531 136.96 51.7736 136.96 53.1047V62.0687H131.325V39.4372H131.324Z" fill="white"/>
</svg>
