<svg xmlns="http://www.w3.org/2000/svg" width="120" height="55" viewBox="0 0 120 55" fill="none"><path d="M26.8924 54.3104C22.2995 54.3178 17.7815 53.1485 13.7704 50.9142C9.75925 48.68 6.38909 45.4554 3.98215 41.5489C1.57522 37.6424 0.211975 33.1846 0.0227901 28.6017C-0.166395 24.0188 0.824802 19.4641 2.90159 15.373C4.97838 11.2819 8.07133 7.79127 11.8847 5.23483C15.6981 2.6784 20.1044 1.14165 24.6823 0.771528C29.2602 0.401405 33.8566 1.21028 38.0321 3.12081C42.2076 5.03135 45.8225 7.97966 48.5312 11.6838L46.0062 13.5352C43.2418 9.75092 39.4157 6.87024 35.012 5.25745C30.6082 3.64466 25.8244 3.37219 21.2656 4.47449C16.7068 5.57679 12.5776 8.00436 9.40027 11.4502C6.22291 14.8961 4.14004 19.2055 3.41506 23.8335C2.69007 28.4616 3.35553 33.2004 5.32727 37.4507C7.29902 41.701 10.4885 45.272 14.4924 47.7121C18.4963 50.1522 23.1348 51.3519 27.8214 51.1593C32.508 50.9668 37.0322 49.3907 40.8218 46.6303L42.6757 49.1521C38.0978 52.504 32.5689 54.311 26.8924 54.3104Z" fill="black"></path><path d="M36.251 44.1534L48.0069 44.1406L42.5221 55L36.251 44.1534Z" fill="black"></path><path d="M15.3545 13.1265H20.3407V40.5142H15.3545V13.1265Z" fill="black"></path><path d="M24.0547 20.8384H28.766V23.1175C28.7654 23.5678 28.7376 24.0176 28.6829 24.4645H28.766C29.4328 23.1983 30.4414 22.1439 31.6774 21.4207C32.9134 20.6974 34.3275 20.3343 35.7595 20.3723C40.1256 20.3723 42.5931 22.6515 42.5931 27.8609V40.5205H37.7284V28.8568C37.7284 26.4564 37.0891 24.8412 34.596 24.8412C33.3934 24.8321 32.2216 25.2212 31.264 25.9478C30.3063 26.6743 29.6167 27.6973 29.303 28.8568C29.0466 29.7071 28.9279 30.5929 28.9514 31.4807V40.5141H24.0547V20.8384Z" fill="black"></path><path d="M45.8263 34.641C47.2954 35.9869 49.203 36.7558 51.196 36.8052C52.5832 36.8052 53.7531 36.1668 53.7531 35.0241C53.7531 32.1002 44.1642 32.4704 44.1642 26.1566C44.1642 22.4985 47.4436 20.3662 51.6946 20.3662C56.1694 20.3662 58.2918 22.6006 58.2918 22.6006L56.4763 26.2268C55.1155 25.1107 53.4043 24.5094 51.6435 24.5286C50.365 24.5286 49.1312 25.0649 49.1312 26.3098C49.1312 29.0869 58.7201 28.7357 58.7201 35.0624C58.7201 38.3374 55.8562 40.9677 51.1896 40.9677C48.3558 41.0222 45.6094 39.9868 43.5186 38.0757L45.8263 34.641Z" fill="black"></path><path d="M60.2422 13.1265H65.107V17.4868H60.2422V13.1265ZM60.2422 20.8321H65.1389V40.5142H60.2422V20.8321Z" fill="black"></path><path d="M75.6559 20.366C79.9837 20.366 81.3325 22.8814 81.3325 22.8814H81.4156C81.4156 22.8814 81.3772 22.377 81.3772 21.7641V13.1265H86.2803V40.5142H81.6713V38.8863C81.6698 38.4593 81.6976 38.0327 81.7544 37.6095H81.6713C81.0417 38.6755 80.1342 39.5509 79.0456 40.1423C77.9569 40.7337 76.7279 41.0189 75.4897 40.9675C70.1583 40.9675 66.7638 36.7604 66.7638 30.6699C66.7382 24.4263 70.4396 20.366 75.6559 20.366ZM76.5572 36.8434C79.1143 36.8434 81.5051 34.992 81.5051 30.6316C81.5051 27.5864 79.8878 24.5731 76.6084 24.5731C73.9043 24.5731 71.6605 26.7756 71.6605 30.6699C71.6733 34.411 73.687 36.8434 76.5572 36.8434Z" fill="black"></path><path d="M97.8238 20.3662C103.507 20.3662 106.556 24.4967 106.556 29.7061C106.556 30.2871 106.441 31.6214 106.441 31.6214H92.844C93.1572 35.0496 95.8229 36.8308 98.7571 36.8308C100.834 36.7326 102.825 35.9744 104.44 34.6666L106.358 38.1778C104.13 40.0143 101.326 41.0108 98.4375 40.9932C91.9107 40.9932 87.8578 36.2817 87.8578 30.6957C87.813 24.6116 91.9618 20.3662 97.8238 20.3662ZM101.608 28.2378C101.525 25.5756 99.8758 24.1456 97.7088 24.1456C95.1965 24.1456 93.4641 25.6905 92.9974 28.2378H101.608Z" fill="black"></path><path d="M108.142 20.8385H112.853V24.2349C112.851 24.6978 112.824 25.1603 112.77 25.6202H112.853C113.742 22.8048 116.1 20.5576 119.118 20.5576C119.414 20.5595 119.709 20.5873 120 20.6406V25.467C119.615 25.4105 119.226 25.3828 118.836 25.384C117.612 25.3889 116.424 25.796 115.455 26.5425C114.485 27.289 113.789 28.3334 113.473 29.5145C113.163 30.5494 113.016 31.6264 113.038 32.7065V40.4951H108.142V20.8385Z" fill="black"></path></svg>